<?xml version="1.0" encoding="UTF-8" standalone="no"?>
<svg
   xmlns:dc="http://purl.org/dc/elements/1.1/"
   xmlns:cc="http://creativecommons.org/ns#"
   xmlns:rdf="http://www.w3.org/1999/02/22-rdf-syntax-ns#"
   xmlns:svg="http://www.w3.org/2000/svg"
   xmlns="http://www.w3.org/2000/svg"
   xmlns:sodipodi="http://sodipodi.sourceforge.net/DTD/sodipodi-0.dtd"
   xmlns:inkscape="http://www.inkscape.org/namespaces/inkscape"
   role="img"
   viewBox="8.37 5.87 561.24163 473.44445"
   version="1.1"
   id="svg4167"
   sodipodi:docname="sonatype-nexus-crop.svg"
   inkscape:version="0.92.4 (unknown)"
   width="561.24164"
   height="473.44446">
  <metadata
     id="metadata4173">
    <rdf:RDF>
      <cc:Work
         rdf:about="">
        <dc:format>image/svg+xml</dc:format>
        <dc:type
           rdf:resource="http://purl.org/dc/dcmitype/StillImage" />
        <dc:title>Sonatype Nexus logo</dc:title>
      </cc:Work>
    </rdf:RDF>
  </metadata>
  <defs
     id="defs4171" />
  <sodipodi:namedview
     pagecolor="#ffffff"
     bordercolor="#666666"
     borderopacity="1"
     objecttolerance="10"
     gridtolerance="10"
     guidetolerance="10"
     inkscape:pageopacity="0"
     inkscape:pageshadow="2"
     inkscape:window-width="1920"
     inkscape:window-height="990"
     id="namedview4169"
     showgrid="false"
     inkscape:zoom="1.05158"
     inkscape:cx="280.46767"
     inkscape:cy="107.99444"
     inkscape:window-x="0"
     inkscape:window-y="0"
     inkscape:window-maximized="1"
     inkscape:current-layer="svg4167" />
  <title
     id="title3963">Sonatype Nexus logo</title>
  <style
     id="style3965">svg {enable-background:new 0 0 600 764}</style>
  <style
     id="style3967">.st5{fill:#d4d4d4}.st54{fill:#326798}.st55{fill:#ebebeb}.st56{fill:#020202}.st57{fill:#ececec}.st58{fill:#010101}.st60{fill:#040404}.st61{fill:#bdbdbd}.st62{fill:#e8e8e8}.st63{fill:#cdcdce}.st64{fill:#cfcfcf}</style>
  <path
     d="m 14.087663,200.97 c 1.9,5.5 4.5,10.6 8.6,15 7.2,4.9 15.1,6.1 23.7,6.1 161.799997,-0.2 323.599997,-0.2 485.399997,0 8.6,0 16.5,-1.2 23.7,-6.1 4,-4.3 6.7,-9.4 8.6,-15 0.6,-6.3 -0.7,-12.2 -3.1,-18 -6.6,-9.3 -15.5,-12.8 -26.9,-12.8 -163.3,0.2 -326.6,0.2 -489.899997,0 -11.4,0 -20.3,3.5 -26.9,12.8 -2.5,5.8 -3.8,11.8 -3.2,18 z m 0.1,-82.3 c 2.1,5.1 4.4,10 8.3,13.9 6.8,4.6 14.2,5.8 22.4,5.8 162.599997,-0.1 325.199997,-0.1 487.799997,0 7.6,0 14.7,-0.8 21.4,-4.7 2.3,-2.7 4.7,-5.4 7,-8.1 1,-3.2 2,-6.4 3,-9.7 0.4,-6.5 -1.8,-12.3 -4.8,-17.9 -6.4,-7.2 -14.3,-10.1 -24.1,-10.1 -164.2,0.1 -328.3,0.1 -492.499997,0 -9.7,0 -17.6,2.8 -24.1,10 -1.4,3.7 -4.9,6.5 -4.7,11 0.2,3.5 0.2,6.7 0.3,9.8 z"
     class="st54"
     id="path3969"
     inkscape:connector-curvature="0"
     style="fill:#326798" />
  <path
     d="m 13.887663,363.87 c 1.1,2.1 -0.3,4.9 1.6,6.8 2.4,3.9 5,7.7 8.5,10.9 6.4,3.8 13.3,4.7 20.6,4.7 163.099997,-0.1 326.199997,-0.1 489.199997,0 8,0 15.1,-1.4 21.6,-5.9 4.5,-4.6 6.8,-10.4 8.6,-16.5 0.2,-6 -1.4,-11.5 -4.1,-16.7 -6.3,-8.1 -14.5,-11.2 -24.8,-11.2 -164.2,0.1 -328.3,0.1 -492.499997,0 -10.3,0 -18.5,3.1 -24.8,11.2 -2.5,5.2 -4.1,10.8 -3.9,16.7 z"
     id="path3971"
     inkscape:connector-curvature="0" />
  <path
     d="m 13.887663,33.97 c 1.4,6.3 4.1,11.9 8.6,16.5 6.8,4.6 14.2,5.8 22.4,5.8 162.799997,-0.1 325.499997,-0.1 488.299997,0 8.2,0 15.6,-1.3 22.4,-5.8 3.9,-4 6.3,-8.9 8.3,-13.9 0,-3.2 0.1,-6.4 0.1,-9.6 -1.6,-3.7 -3.1,-7.3 -4.7,-11 -6.4,-7.2 -14.3,-10.1 -24.1,-10.1 -164.2,0.1 -328.3,0.1 -492.499997,0 -9.7,0 -17.6,2.8 -24.1,10 -2.9,5.7 -5.1,11.6 -4.7,18.1 z"
     class="st54"
     id="path3973"
     inkscape:connector-curvature="0"
     style="fill:#326798" />
  <path
     d="m 13.887663,281.77 c 1.3,6.3 4.2,11.8 8.6,16.5 6.6,4.4 13.7,5.9 21.7,5.9 163.199997,-0.1 326.499997,-0.1 489.699997,0 8,0 15.1,-1.5 21.7,-5.9 3.8,-4 6.4,-8.8 8.3,-13.9 l 0.3,-8.1 -4.8,-12.3 c -6.4,-7.2 -14.3,-10.1 -24,-10.1 -164.2,0.1 -328.3,0.1 -492.499997,0 -10.3,0 -18.5,3.1 -24.8,11.2 -2.8,5.2 -4.4,10.7 -4.2,16.7 z m 0,164.3 c 1.3,6.3 4.2,11.8 8.6,16.5 6.6,4.4 13.7,5.9 21.7,5.9 163.199997,-0.1 326.499997,-0.1 489.699997,0 8,0 15.1,-1.5 21.7,-5.9 3.8,-4 6.4,-8.8 8.3,-13.9 0.1,-3.2 0.1,-6.4 0.2,-9.5 -1.6,-3.7 -3.1,-7.3 -4.7,-10.9 -6.6,-7.6 -14.8,-10.2 -24.8,-10.2 -163.7,0.2 -327.5,0.2 -491.199997,0 -9.9,0 -18.1,2.6 -24.7,10.1 -3.1,5.5 -5.2,11.4 -4.8,17.9 z"
     id="path3975"
     inkscape:connector-curvature="0" />
  <path
     d="M 43.687663,232.97 H 422.28766 c 37.6,0 75.2,0.2 112.8,-0.1 14.2,-0.1 25.5,-6 31.7,-19.5 5.3,-11.6 2.8,-24.5 -5.9,-30.4 5,4.9 5.5,11.1 4.7,17.5 -0.3,1.1 -0.6,2.1 -0.9,3.2 1,8.9 -7.5,19.2 -14.5,22 -4.7,1.9 -9.5,3.1 -14.8,3.1 -164.2,-0.1 -328.3,-0.1 -492.499997,-0.1 -15.9,0 -26.6,-8.3 -29.6,-22.8 -0.3,-1.3 -0.6,-2.5 -0.2,-3.7 -0.2,-0.6 -0.3,-1.2 -0.5,-1.8 -0.8,-6.5 -0.4,-12.7 4.7,-17.6 -6.2,4.3 -9.9999997,14.4 -8.2999997,22.5 3.3999997,17.6 16.1999997,27.7 34.6999997,27.7 z"
     class="st55"
     id="path3977"
     inkscape:connector-curvature="0"
     style="fill:#ebebeb" />
  <path
     d="m 12.487663,200.67 c 0.2,0.6 0.3,1.2 0.5,1.8 0.2,-0.5 0.5,-1 1.1,-1.4 -0.6,-6.3 0.7,-12.2 3.1,-18 -5.1,4.9 -5.5,11.1 -4.7,17.6 z m 551.499997,0.3 c 0.3,0.9 0.5,1.8 0.6,2.8 0.3,-1 0.7,-2.1 0.9,-3.2 0.8,-6.5 0.4,-12.6 -4.7,-17.5 2.5,5.7 3.8,11.7 3.2,17.9 z M 44.287663,397.27 H 471.88766 c 21.1,0 42.2,0.1 63.3,0 18.3,-0.1 30.3,-9.9 34,-27.4 1.8,-8.7 -2.3,-19.1 -9.1,-22.7 5,4.5 6,10.4 5.6,16.7 -0.3,1.3 -0.6,2.5 -0.9,3.8 0.5,9.7 -6.9,20.6 -17.1,23.7 -3.7,1.1 -7.5,1.9 -11.6,1.9 -164.7,-0.1 -329.4,-0.1 -494.099997,-0.1 -15.7,0 -25.4,-7.7 -28.8,-22.7 -0.2,-0.9 -0.4,-1.8 -0.5,-2.6 -0.3,-1.3 -0.5,-2.7 -0.5,-4.1 -0.1,-6.2 0.7,-12.1 5.7,-16.5 -6.7,3.6 -10.8999997,14.1 -9.0999997,22.7 3.7999997,17.9 15.9999997,27.3 35.4999997,27.3 z"
     class="st55"
     id="path3979"
     inkscape:connector-curvature="0"
     style="fill:#ebebeb" />
  <path
     d="m 564.08766,363.87 c 0.4,1.2 0.5,2.5 0.6,3.7 0.3,-1.2 0.7,-2.5 0.9,-3.8 0.4,-6.3 -0.6,-12.2 -5.6,-16.7 2.8,5.3 4.4,10.8 4.1,16.8 z m -551.899997,-0.2 c 0,1.4 0.2,2.8 0.5,4.1 -0.1,-1.4 0,-2.7 1.2,-3.9 -0.2,-6 1.4,-11.5 4.1,-16.7 -5.1,4.4 -5.9,10.3 -5.8,16.5 z"
     class="st55"
     id="path3981"
     inkscape:connector-curvature="0"
     style="fill:#ebebeb" />
  <path
     d="m 559.28766,428.07 c 3.5,3 5.1,7 6.2,11.3 0,0.3 0.1,0.7 0.1,1 2.8,3.3 1.2,7.6 0.9,11.2 -0.6,7.6 -3.1,14.6 -11,18 -1.4,0.9 -2.8,1.9 -4.1,2.8 -4,4.4 -9.4,4.2 -14.7,4.2 H 40.487663 c -5,0 -10.2,0.1 -14,-4.2 -6.4,-4.8 -11.5,-10.5 -13.4,-18.6 -0.4,-2 -1,-4 -0.4,-5.9 -0.2,-0.7 -0.3,-1.4 -0.5,-2.1 -0.6,-6.9 1.1,-13 6.4,-17.8 -7.6,3.9 -9.6999997,11 -10.0999997,18.5 -1,18.2 13.5999997,32.8 32.5999997,32.8 49.9,0.1 99.699997,0 149.599997,0 h 344.5 c 10.4,0 19.5,-3.1 26.6,-11.2 11.3,-12.5 10.1,-32 -2.5,-40 z"
     class="st57"
     id="path3985"
     inkscape:connector-curvature="0"
     style="fill:#ececec" />
  <path
     d="m 565.58766,440.47 c 0,-0.3 -0.1,-0.7 -0.1,-1 -1.1,-4.3 -2.7,-8.3 -6.2,-11.3 1.6,3.6 3.1,7.3 4.7,10.9 0.7,0.4 1.2,0.9 1.6,1.4 z m -553.199997,5.5 c 0.1,0.7 0.3,1.4 0.5,2.1 0.2,-0.7 0.5,-1.3 1.1,-2 -0.4,-6.5 1.7,-12.4 4.8,-17.9 -5.3,4.8 -7,10.9 -6.4,17.8 z"
     class="st57"
     id="path3987"
     inkscape:connector-curvature="0"
     style="fill:#ececec" />
  <path
     d="M 44.187663,315.17 H 438.38766 c 32.2,0 64.4,0.2 96.6,-0.1 14.5,-0.1 26,-5.5 31.9,-19.9 5,-12.2 2,-25.2 -7.7,-31.3 3.8,3.3 5.5,7.7 6.3,12.5 0.1,0.9 0.1,1.8 0.1,2.7 2.9,7 0.5,16.8 -6,22.2 -2.8,2.3 -5.5,4.6 -8.3,7 -3.7,3.3 -8.1,4.2 -12.8,4.2 H 39.287663 c -4.7,0 -9.2,-0.9 -12.8,-4.2 -6.8,-5.1 -12.1,-11.1 -13.4,-19.9 -0.2,-1.5 -0.6,-3.1 -0.3,-4.5 -0.2,-0.7 -0.3,-1.3 -0.4,-2 -0.4,-6.3 0.6,-12.2 5.6,-16.8 -6.7,3.6 -10.8999997,14.1 -9.0999997,22.7 3.7999997,18 15.6999997,27.4 35.2999997,27.4 z"
     class="st55"
     id="path3989"
     inkscape:connector-curvature="0"
     style="fill:#ebebeb" />
  <path
     d="m 12.387663,281.77 c 0.1,0.7 0.3,1.3 0.4,2 0.2,-0.7 0.5,-1.4 1.1,-2 -0.2,-6 1.4,-11.5 4.1,-16.7 -5,4.5 -6.1,10.4 -5.6,16.7 z m 553.399997,-2.8 c 0,-0.9 0,-1.8 -0.1,-2.7 -0.8,-4.8 -2.5,-9.2 -6.3,-12.5 l 4.8,12.3 c 0.6,1 1.1,1.9 1.6,2.9 z M 32.587663,66.07 c 8.5,1.7 17,1.3 25.6,1.3 H 533.08766 c 11,0 21,-2.5 28.8,-11.1 11.2,-12.4 9.2,-34.8 -2.5,-40.2 3.5,3 5.1,7 6.2,11.3 0.1,1.1 0.2,2.2 0.2,3.3 3.2,9.3 -0.6,21.4 -8.8,25.6 -1.8,1.4 -3.7,2.8 -5.5,4.2 -3.7,3.3 -8.1,4.2 -12.8,4.2 H 39.487663 c -4.7,0 -9.2,-0.9 -12.8,-4.2 -6.8,-5.1 -12.1,-11.1 -13.4,-19.9 -0.2,-1.5 -0.6,-3.1 -0.3,-4.5 -0.2,-0.7 -0.3,-1.4 -0.5,-2.1 -0.6,-6.9 1.2,-13 6.4,-17.8 -2.7,0.6 -4.3,2.7 -5.7,4.8 -11.0999997,16.5 -0.2,41.2 19.4,45.1 z"
     class="st55"
     id="path3991"
     inkscape:connector-curvature="0"
     style="fill:#ebebeb" />
  <path
     d="m 563.98766,26.97 c 0.7,1.1 1.3,2.4 1.7,3.6 0,-1.1 -0.1,-2.2 -0.2,-3.3 -1,-4.3 -2.7,-8.3 -6.2,-11.3 1.6,3.7 3.2,7.4 4.7,11 z m -551.599997,6.9 c 0.1,0.7 0.3,1.4 0.5,2.1 0.2,-0.7 0.5,-1.4 1.1,-2 -0.4,-6.5 1.8,-12.3 4.8,-17.9 -5.3,4.8 -7,10.9 -6.4,17.8 z m 31.3,115.6 H 409.78766 c 41.8,0 83.5,0.1 125.3,-0.1 14.5,-0.1 26.1,-5.5 32,-19.9 5,-12.2 2,-25.3 -7.7,-31.4 5.1,4.7 6.9,10.7 6.4,17.4 -0.2,1.4 -0.5,2.8 -0.9,4.2 0.5,6.7 -2.5,12.3 -7.2,17.3 -1.9,2 -4.1,3.7 -6.1,5.5 -3.7,3.3 -8.1,4.2 -12.8,4.2 H 39.587663 c -4.7,0 -9.2,-0.9 -12.8,-4.2 -2,-1.2 -4.5,-1.7 -5.6,-4.2 -8.1,-4.2 -11.8999997,-16.2 -8.8,-25.4 0,-1.1 0,-2.3 0.1,-3.4 0.5,-4.7 2.9,-8.3 6.4,-11.3 -7.5,4.7 -11.6999997,15.2 -9.7999997,24.1 3.6999997,17.9 15.4999997,27.2 34.5999997,27.2 z"
     class="st55"
     id="path3993"
     inkscape:connector-curvature="0"
     style="fill:#ebebeb" />
  <path
     d="m 564.18766,116.07 c 0.3,1.3 0.5,2.5 0.6,3.7 0.4,-1.4 0.7,-2.7 0.9,-4.2 0.5,-6.8 -1.3,-12.7 -6.4,-17.4 3.1,5.6 5.3,11.4 4.9,17.9 z m -551.899997,-6.6 c 0,1.1 -0.1,2.3 -0.1,3.4 0.4,-1.3 1,-2.6 1.8,-3.8 -0.2,-4.4 3.3,-7.2 4.7,-11 -3.5,3.1 -5.9,6.7 -6.4,11.4 z"
     class="st55"
     id="path3995"
     inkscape:connector-curvature="0"
     style="fill:#ebebeb" />
  <path
     d="m 39.887663,225.97 c 1.5,0.4 3.2,0.1 4.9,0.1 H 533.38766 c 7.1,0 13.8,-1.1 19.6,-5.6 1.1,-0.8 1.9,-1.6 2.3,-2.7 -0.3,0.2 -0.5,0.4 -0.8,0.6 -5.4,4.1 -11.5,5.6 -18.2,5.6 H 41.987663 c -6.7,0 -12.8,-1.5 -18.1,-5.5 3.3,5.9 10,6.1 16,7.5 z"
     class="st61"
     id="path4011"
     inkscape:connector-curvature="0"
     style="fill:#bdbdbd" />
  <path
     d="M 41.887663,223.97 H 536.18766 c 6.7,0 12.8,-1.5 18.2,-5.6 0.3,-0.2 0.6,-0.4 0.8,-0.6 0.2,-0.5 0.3,-1.1 0.2,-1.8 -7.2,4.9 -15.1,6.1 -23.7,6.1 -161.8,-0.2 -323.6,-0.2 -485.399997,0 -8.6,0 -16.5,-1.2 -23.7,-6.1 0.3,1 0.7,1.8 1.2,2.6 5.4,4 11.4,5.4 18.1,5.4 z"
     class="st61"
     id="path4013"
     inkscape:connector-curvature="0"
     style="fill:#bdbdbd" />
  <path
     d="m 555.98766,217.17 c 0.2,0.7 0.2,1.3 0,1.9 2.7,-2.6 4.6,-5.6 6,-9.1 -1.5,2.7 -3.4,5.1 -6,7.2 z m -533.999997,0 c -2.4,-1.9 -4.2,-4.2 -5.7,-6.7 1.4,3.2 3.3,6 5.6,8.4 -0.1,-0.4 -0.1,-1 0.1,-1.7 z"
     class="st5"
     id="path4015"
     inkscape:connector-curvature="0"
     style="fill:#d4d4d4" />
  <path
     d="m 21.987663,217.17 c 0.1,-0.4 0.3,-0.8 0.6,-1.2 -4,-4.3 -6.7,-9.4 -8.6,-15 0.3,3.4 1.1,6.6 2.3,9.5 1.5,2.6 3.4,4.8 5.7,6.7 z m 539.999997,-7.3 c 1,-2.7 1.7,-5.7 2,-8.9 -1.9,5.5 -4.5,10.6 -8.6,15 0.3,0.4 0.5,0.9 0.6,1.2 2.6,-2.1 4.5,-4.5 6,-7.3 z"
     class="st5"
     id="path4017"
     inkscape:connector-curvature="0"
     style="fill:#d4d4d4" />
  <path
     d="m 556.08766,219.07 c -0.4,1.2 -1.7,2.1 -3,3 -5.1,3.6 -10.7,5.3 -16.9,5.4 H 44.587663 c -7.1,0 -13.8,-1.2 -19.7,-5.4 -1.3,-0.9 -2.6,-1.9 -3,-3.1 -2.4,-2.4 -4.2,-5.2 -5.6,-8.4 -1.5,-2.5 -2.5,-5.2 -3.4,-8.1 -0.4,1.1 -0.1,2.4 0.2,3.7 3.1,14.5 13.7,22.8 29.6,22.8 164.199997,0 328.299997,0 492.499997,0.1 5.3,0 10.1,-1.3 14.8,-3.1 7.1,-2.8 15.6,-13.1 14.5,-22 -0.7,2.2 -1.6,4.2 -2.6,6.1 -1.2,3.4 -3.2,6.4 -5.8,9 z"
     class="st5"
     id="path4019"
     inkscape:connector-curvature="0"
     style="fill:#d4d4d4" />
  <path
     d="m 14.087663,200.97 c -0.5,0.4 -0.9,0.9 -1.1,1.4 0.8,2.9 1.9,5.6 3.4,8.1 -1.3,-2.8 -2.1,-6 -2.3,-9.5 z m 547.899997,8.9 c 1.1,-1.9 1.9,-4 2.6,-6.1 -0.1,-0.9 -0.3,-1.9 -0.6,-2.8 -0.3,3.3 -1,6.2 -2,8.9 z m -6,7.3 c -0.2,0.2 -0.5,0.4 -0.8,0.6 -0.4,1.1 -1.2,1.9 -2.3,2.7 -5.8,4.5 -12.5,5.6 -19.6,5.6 H 44.687663 c -1.6,0 -3.3,0.3 -4.9,-0.1 -5.9,-1.4 -12.7,-1.6 -16.1,-7.4 0,0 -0.1,0 -0.1,-0.1 -0.6,-0.4 -1.1,-0.8 -1.7,-1.3 -0.2,0.7 -0.2,1.2 -0.1,1.7 4.6,4.6 10.8,7.5 18,7.9 2.3,0.1 4.6,0.1 7,0.1 H 530.98766 c 5.1,0 10.1,0 15.1,-1.8 4,-1.5 7.3,-3.5 9.9,-6 0.2,-0.6 0.3,-1.2 0,-1.9 z"
     class="st5"
     id="path4021"
     inkscape:connector-curvature="0"
     style="fill:#d4d4d4" />
  <path
     d="m 23.687663,218.47 c -0.3,-0.7 -0.7,-1.5 -1.1,-2.5 -0.3,0.4 -0.5,0.9 -0.6,1.2 0.6,0.5 1.1,0.9 1.7,1.3 z m 531.599997,-0.7 c 0.3,-0.2 0.5,-0.4 0.8,-0.6 -0.1,-0.4 -0.3,-0.8 -0.6,-1.2 0,0.7 -0.1,1.3 -0.2,1.8 z m -24.2,9.1 H 46.887663 c -2.3,0 -4.6,0.1 -7,-0.1 -7.2,-0.4 -13.5,-3.3 -18,-7.9 0.4,1.3 1.7,2.2 3,3.1 5.9,4.2 12.5,5.4 19.7,5.4 154.599997,-0.1 309.199997,0 463.799997,0 h 27.8 c 6.2,0 11.8,-1.8 16.9,-5.4 1.3,-0.9 2.6,-1.8 3,-3 -2.6,2.5 -5.9,4.5 -9.9,6 -5,1.9 -10,1.9 -15.1,1.9 z"
     class="st5"
     id="path4023"
     inkscape:connector-curvature="0"
     style="fill:#d4d4d4" />
  <path
     d="m 38.487663,142.37 c 2.4,0.6 5.1,0.1 7.6,0.1 H 534.58766 c 5.3,0 10.6,0 15.3,-2.9 0.7,-1 1.4,-2.1 2.1,-3.1 -5.5,3 -11.4,3.9 -17.6,3.9 -163.8,-0.1 -327.5,-0.1 -491.299997,0 -7.1,0 -13.5,-1.5 -19.6,-5.1 3.3,5.5 9.6,5.8 15,7.1 z"
     class="st61"
     id="path4025"
     inkscape:connector-curvature="0"
     style="fill:#bdbdbd" />
  <path
     d="m 43.287663,140.47 c 163.799997,-0.1 327.499997,-0.1 491.299997,0 6.2,0 12.1,-0.8 17.6,-3.9 0.7,-0.9 1.3,-1.9 2,-2.8 -6.6,3.8 -13.8,4.7 -21.4,4.7 -162.6,-0.1 -325.2,-0.1 -487.799997,0 -8.2,0 -15.6,-1.3 -22.4,-5.8 0.3,1.1 0.7,2 1.2,2.8 5.9,3.6 12.4,5 19.5,5 z"
     class="st61"
     id="path4027"
     inkscape:connector-curvature="0"
     style="fill:#bdbdbd" />
  <path
     d="m 548.98766,141.77 c -0.4,0.3 -0.8,0.5 -1.2,0.8 0.1,-0.1 0.2,-0.1 0.4,-0.2 2.9,-1.8 5.5,-3.8 7.7,-6.1 -0.8,0.6 -1.6,1.2 -2.5,1.7 -1.2,1.5 -3.1,2.5 -4.4,3.8 z m 11.7,-12.9 c -0.3,1.1 -0.7,2.2 -1.2,3.1 1.5,-2.2 2.7,-4.6 3.5,-7.2 -0.2,0.5 -0.4,1 -0.6,1.4 -0.6,1 -1.2,1.8 -1.7,2.7 z m -155.9,15.6 H 45.787663 c -6.8,0 -13.5,-0.5 -19.4,-4.3 -2.4,-1.5 -5,-3 -4.4,-6.1 -4,-3.4 -6.5,-7.8 -8.2,-12.6 -0.2,3.9 1.1,7.3 3,10.5 1.3,1.9 2.9,3.7 4.9,5.4 2.5,1.8 5,3.5 7.7,4.8 4.1,2 8.4,2.5 12.8,2.5 H 535.88766 c 2.1,0 4.1,-0.1 6.1,-0.5 -1.9,0.2 -3.9,0.2 -5.8,0.2 -43.7,0.1 -87.6,0.1 -131.4,0.1 z"
     class="st5"
     id="path4029"
     inkscape:connector-curvature="0"
     style="fill:#d4d4d4" />
  <path
     d="m 21.987663,134.17 c 0.1,-0.5 0.2,-1 0.5,-1.5 -3.9,-4 -6.3,-8.9 -8.3,-13.9 -0.2,1 -0.3,1.9 -0.4,2.8 1.7,4.8 4.2,9.1 8.2,12.6 z m 540.299997,-7.9 c 0.2,-0.5 0.4,-1 0.6,-1.4 0.8,-2.7 1.3,-5.5 1.2,-8.7 -1,3.2 -2,6.4 -3,9.7 -0.1,1.1 -0.3,2.1 -0.5,3.1 0.6,-1 1.2,-1.8 1.7,-2.7 z"
     class="st5"
     id="path4031"
     inkscape:connector-curvature="0"
     style="fill:#d4d4d4" />
  <path
     d="m 559.48766,131.97 c -0.9,1.7 -2.1,3.1 -3.6,4.4 -2.2,2.2 -4.8,4.2 -7.7,6.1 -0.1,0.1 -0.2,0.1 -0.4,0.2 -1.8,1.1 -3.7,1.5 -5.7,1.8 -2,0.3 -4,0.5 -6.1,0.5 H 42.287663 c -4.5,0 -8.8,-0.5 -12.8,-2.5 -2.7,-1.4 -5.3,-3 -7.7,-4.8 -2,-1.7 -3.6,-3.5 -4.9,-5.4 1.3,2.2 2.8,4.2 4.3,6.3 1,2.5 3.6,3 5.6,4.2 12.4,3.7 25.2,2.8 37.9,2.8 H 514.48766 c 12.4,0 25,0.9 37.2,-2.8 2.1,-1.8 4.3,-3.5 6.1,-5.5 4.7,-5 7.7,-10.6 7.2,-17.3 -0.5,1.7 -1.1,3.4 -1.8,5 -1.1,2.4 -2.3,4.8 -3.7,7 z"
     class="st5"
     id="path4033"
     inkscape:connector-curvature="0"
     style="fill:#d4d4d4" />
  <path
     d="m 562.88766,124.77 c 0.7,-1.6 1.3,-3.3 1.8,-5 -0.1,-1.2 -0.3,-2.4 -0.6,-3.7 0.1,3.2 -0.4,6.1 -1.2,8.7 z m -9.5,13.3 c -1,0.6 -2.2,1.2 -3.4,1.7 -4.8,2.8 -10,2.9 -15.3,2.9 -162.8,-0.1 -325.7,0 -488.499997,0 -2.6,0 -5.2,0.5 -7.6,-0.1 -5.5,-1.3 -11.7,-1.7 -14.8,-7 -0.1,-0.1 -0.2,-0.1 -0.3,-0.2 -0.5,-0.4 -0.9,-0.8 -1.4,-1.2 -0.6,3.1 2.1,4.6 4.4,6.1 5.9,3.8 12.5,4.3 19.4,4.3 119.699997,-0.1 239.299997,0 358.999997,0 h 131.5 c 1.9,0 3.9,0 5.8,-0.2 1.9,-0.3 3.8,-0.9 5.7,-1.8 0.4,-0.2 0.8,-0.5 1.2,-0.8 1.2,-1.3 3.1,-2.3 4.3,-3.7 z"
     class="st5"
     id="path4035"
     inkscape:connector-curvature="0"
     style="fill:#d4d4d4" />
  <path
     d="m 23.387663,135.27 c 0.1,0.1 0.2,0.1 0.3,0.2 -0.5,-0.8 -0.9,-1.7 -1.2,-2.8 -0.2,0.5 -0.4,1 -0.5,1.5 0.5,0.3 0.9,0.7 1.4,1.1 z m 524.399997,7.3 c -1.8,0.9 -3.7,1.4 -5.7,1.8 2,-0.3 3.9,-0.8 5.7,-1.8 z"
     class="st5"
     id="path4037"
     inkscape:connector-curvature="0"
     style="fill:#d4d4d4" />
  <path
     d="m 12.787663,118.57 c 0,-0.2 -0.1,-0.4 -0.1,-0.5 0,1.6 0.1,3.1 0.3,4.7 0.1,-0.7 0.2,-1.4 0.5,-2.1 -0.3,-0.7 -0.5,-1.4 -0.7,-2.1 z"
     class="st62"
     id="path4039"
     inkscape:connector-curvature="0"
     style="fill:#e8e8e8" />
  <path
     d="m 12.787663,118.57 c 0.2,0.7 0.4,1.4 0.6,2 0.2,-0.6 0.4,-1.2 0.7,-1.9 0,-3.2 -0.1,-6.4 -0.1,-9.6 -0.8,3.1 -1.3,6 -1.3,8.9 0,0.2 0.1,0.4 0.1,0.6 z"
     class="st62"
     id="path4041"
     inkscape:connector-curvature="0"
     style="fill:#e8e8e8" />
  <path
     d="m 12.987663,122.67 c -0.2,-1.5 -0.3,-3.1 -0.3,-4.7 -0.4,-1.7 -0.5,-3.4 -0.5,-5.1 -3.0999997,9.2 0.7,21.2 8.8,25.4 -4.4,-4.5 -8.9,-9.1 -8,-15.6 z"
     class="st62"
     id="path4043"
     inkscape:connector-curvature="0"
     style="fill:#e8e8e8" />
  <path
     d="m 13.987663,109.17 c -0.7,1.2 -1.3,2.5 -1.8,3.8 0,1.7 0.1,3.4 0.5,5.1 0.1,-2.9 0.5,-5.9 1.3,-8.9 z m -0.2,12.3 -0.3,-0.9 c -0.2,0.7 -0.4,1.4 -0.5,2.1 0.5,3.3 1.7,6.4 3.8,9.3 -1.9,-3.1 -3.2,-6.5 -3,-10.5 z"
     class="st62"
     id="path4045"
     inkscape:connector-curvature="0"
     style="fill:#e8e8e8" />
  <path
     d="m 13.787663,121.47 c 0,-0.9 0.2,-1.8 0.4,-2.8 -0.3,0.6 -0.5,1.3 -0.7,1.9 z m 3,10.6 c -2,-2.9 -3.2,-6 -3.8,-9.3 -0.9,6.5 3.6,11.1 8,15.7 -1.5,-2.2 -3,-4.3 -4.2,-6.4 z"
     class="st62"
     id="path4047"
     inkscape:connector-curvature="0"
     style="fill:#e8e8e8" />
  <path
     d="m 556.78766,133.37 c -0.8,0.7 -1.6,1.3 -2.4,1.9 0,0.3 0,0.6 -0.1,0.8 0.8,-0.8 1.7,-1.7 2.5,-2.7 z"
     class="st63"
     id="path4049"
     inkscape:connector-curvature="0"
     style="fill:#cdcdce" />
  <path
     d="m 556.78766,133.37 c 1.8,-2.3 3.3,-4.8 4.4,-7.6 -2.3,2.7 -4.7,5.4 -7,8.1 0.1,0.6 0.2,1 0.2,1.5 0.8,-0.7 1.6,-1.3 2.4,-2 z m -2.6,2.8 c 0,-0.3 0.1,-0.5 0.1,-0.8 -0.6,0.4 -1.1,0.7 -1.7,1.1 -0.1,0.1 -0.3,0.1 -0.4,0.2 -0.7,1 -1.4,2.1 -2.1,3.1 1.4,-1.1 2.8,-2.3 4.1,-3.6 z"
     class="st63"
     id="path4051"
     inkscape:connector-curvature="0"
     style="fill:#cdcdce" />
  <path
     d="m 552.18766,136.67 c 0.1,-0.1 0.3,-0.1 0.4,-0.2 0.6,-0.3 1.2,-0.7 1.7,-1.1 0,-0.5 -0.1,-1 -0.2,-1.5 -0.6,0.9 -1.3,1.8 -1.9,2.8 z m 4.6,-3.3 c -0.8,1 -1.6,1.9 -2.5,2.8 -0.1,0.7 -0.4,1.3 -0.9,1.9 0.9,-0.5 1.7,-1.1 2.5,-1.7 1.4,-1.4 2.6,-2.8 3.6,-4.4 0.5,-0.9 0.9,-2 1.2,-3.1 -1.2,1.6 -2.5,3.2 -3.9,4.5 z"
     class="st63"
     id="path4053"
     inkscape:connector-curvature="0"
     style="fill:#cdcdce" />
  <path
     d="m 560.68766,128.87 c 0.3,-1 0.4,-2 0.5,-3.1 -1.1,2.8 -2.6,5.4 -4.4,7.6 1.4,-1.3 2.7,-2.9 3.9,-4.5 z m -1.2,3.1 c -1.1,1.5 -2.3,3 -3.6,4.4 1.4,-1.3 2.6,-2.7 3.6,-4.4 z m -9.5,7.7 c 1.2,-0.5 2.3,-1.1 3.4,-1.7 0.4,-0.5 0.7,-1.2 0.9,-1.9 -1.4,1.4 -2.8,2.6 -4.3,3.6 z"
     class="st63"
     id="path4055"
     inkscape:connector-curvature="0"
     style="fill:#cdcdce" />
  <path
     d="m 28.287663,387.87 c 2,1.1 4.2,1.9 6.5,2.5 H 540.28766 c 5,-1.9 11.2,-2 14.1,-7.2 -6.2,3.8 -12.9,5.1 -20.2,5.1 -163.5,-0.1 -327.1,-0.1 -490.599997,0 -6.4,0 -12.5,-0.6 -18.1,-4 -0.1,-0.1 -0.2,-0.1 -0.3,-0.2 1,1.1 2.2,2 2.7,3.4 z"
     class="st61"
     id="path4057"
     inkscape:connector-curvature="0"
     style="fill:#bdbdbd" />
  <path
     d="m 25.587663,384.27 c 5.6,3.4 11.7,4 18.1,4 163.499997,-0.1 327.099997,-0.1 490.599997,0 7.3,0 14,-1.4 20.2,-5.1 0.5,-0.8 0.8,-1.7 1.1,-2.8 -6.5,4.6 -13.7,5.9 -21.6,5.9 -163.1,-0.1 -326.2,-0.1 -489.199997,0 -7.4,0 -14.3,-0.9 -20.6,-4.7 0.1,1.1 0.7,1.8 1.3,2.6 -0.1,0 0,0.1 0.1,0.1 z m 9.2,6.1 c -2.3,-0.6 -4.5,-1.4 -6.5,-2.5 1.8,2 4.1,2.4 6.5,2.5 z"
     class="st61"
     id="path4059"
     inkscape:connector-curvature="0"
     style="fill:#bdbdbd" />
  <path
     d="m 14.987663,372.77 c 0.7,2.1 1.7,4.1 2.9,5.9 -0.6,-1.1 -1.1,-2.3 -1.5,-3.5 -0.5,-0.8 -0.9,-1.6 -1.4,-2.4 z m 541.099997,9.1 c 0.1,0.5 0.2,1 0.1,1.4 2.5,-2.5 4.5,-5.4 5.8,-8.7 -1.5,2.6 -3.4,5.1 -5.9,7.3 z"
     class="st5"
     id="path4061"
     inkscape:connector-curvature="0"
     style="fill:#d4d4d4" />
  <path
     d="m 14.987663,372.77 1.5,2.4 c -0.4,-1.4 -0.7,-2.9 -0.9,-4.5 -1.9,-1.9 -0.5,-4.7 -1.6,-6.8 -0.4,3.1 0,6 1,8.9 z m 546.999997,1.7 c 1.3,-3.2 2.1,-6.8 2.1,-10.6 -1.8,6 -4.1,11.8 -8.6,16.5 0.3,0.5 0.5,1 0.6,1.5 2.5,-2.2 4.4,-4.7 5.9,-7.4 z"
     class="st5"
     id="path4063"
     inkscape:connector-curvature="0"
     style="fill:#d4d4d4" />
  <path
     d="m 556.18766,383.27 c -0.3,1.9 -2.3,3.1 -4,4.1 -4.2,2.5 -8.7,4 -13.7,4.3 h -0.6 c -1.4,0.3 -2.8,0.1 -4.2,0 H 44.087663 c -1.3,0.1 -2.7,0.3 -4,0 h -0.6 c -4.1,-0.3 -8.2,-0.3 -11.8,-2.7 -1,-1.2 -2.5,-2.2 -3.4,-3.4 -2.8,-1.8 -5,-4.1 -6.5,-6.9 -1.3,-1.9 -2.2,-3.9 -2.9,-5.9 -0.3,-0.5 -0.6,-0.9 -0.8,-1.4 -0.7,-1.1 -1.2,-2.3 -1.5,-3.5 0.1,0.9 0.3,1.7 0.5,2.6 3.5,14.9 13.2,22.6 28.9,22.6 164.699997,0 329.399997,0 494.099997,0.1 4,0 7.9,-0.8 11.6,-1.9 10.2,-3.1 17.6,-14.1 17.1,-23.7 -0.7,2.4 -1.6,4.7 -2.7,6.9 -1.4,3.3 -3.4,6.3 -5.9,8.8 z"
     class="st5"
     id="path4065"
     inkscape:connector-curvature="0"
     style="fill:#d4d4d4" />
  <path
     d="m 561.98766,374.47 c 1.2,-2.1 2,-4.5 2.7,-6.9 -0.1,-1.3 -0.3,-2.5 -0.6,-3.7 0,3.8 -0.8,7.4 -2.1,10.6 z m -546.999997,-1.7 c -0.9,-2.8 -1.4,-5.8 -1.1,-8.9 -1.1,1.2 -1.3,2.6 -1.2,3.9 0.3,1.2 0.7,2.4 1.5,3.5 0.2,0.5 0.5,1 0.8,1.5 z m 11,13.8 c 0.8,0.5 1.5,0.9 2.3,1.4 l -0.3,-0.3 c -0.7,-0.4 -1.4,-0.8 -2,-1.1 z m 530.099997,-4.7 c -0.4,0.4 -0.9,0.8 -1.4,1.2 -0.1,0.1 -0.2,0.1 -0.3,0.2 -2.9,5.2 -9.1,5.3 -14.1,7.2 l -0.6,0.6 c 1.4,-0.1 2.8,-0.4 4.2,-0.7 4.9,-1.3 9.1,-3.7 12.4,-7 0,-0.6 -0.1,-1 -0.2,-1.5 z m -521.299997,8.5 c 1.2,0.3 2.4,0.5 3.6,0.6 -0.2,-0.2 -0.5,-0.4 -0.7,-0.6 z"
     class="st5"
     id="path4067"
     inkscape:connector-curvature="0"
     style="fill:#d4d4d4" />
  <path
     d="m 554.78766,382.97 c 0.5,-0.4 0.9,-0.8 1.4,-1.2 -0.1,-0.5 -0.3,-0.9 -0.6,-1.5 -0.3,1.1 -0.6,2 -1.1,2.8 0,0 0.1,0 0.3,-0.1 z m -509.799997,8.7 h -0.8 489.599997 -0.6 c -162.8,0.1 -325.5,0.1 -488.199997,0 z m 494.699997,-0.8 c -0.5,0.4 -1.1,0.7 -1.7,0.8 h 0.6 c 4.9,-0.3 9.5,-1.8 13.7,-4.3 1.8,-1.1 3.8,-2.2 4,-4.1 -3.3,3.3 -7.5,5.7 -12.4,7 -1.5,0.3 -2.9,0.5 -4.2,0.6 z m -504.899997,-0.5 c -2.4,-0.1 -4.7,-0.5 -6.5,-2.5 -0.8,-0.4 -1.6,-0.9 -2.3,-1.4 l -1.5,-0.9 c 0.9,1.2 2.4,2.2 3.4,3.4 3.6,2.4 7.7,2.4 11.8,2.7 h 0.6 c -0.6,-0.1 -1.2,-0.4 -1.7,-0.8 -1.4,0 -2.6,-0.3 -3.8,-0.5 z"
     class="st5"
     id="path4069"
     inkscape:connector-curvature="0"
     style="fill:#d4d4d4" />
  <path
     d="m 23.587663,383.07 c -0.8,-0.5 -1.5,-1.1 -2.1,-1.7 0.7,0.8 1.4,1.6 2.2,2.3 -0.1,-0.1 -0.1,-0.3 -0.1,-0.6 z"
     class="st64"
     id="path4071"
     inkscape:connector-curvature="0"
     style="fill:#cfcfcf" />
  <path
     d="m 23.587663,383.07 c 0,-0.5 0.1,-1 0.4,-1.6 -3.4,-3.1 -6,-6.9 -8.5,-10.9 1.3,4.1 3.3,7.6 6,10.7 0.7,0.7 1.4,1.3 2.1,1.8 z m 4.4,4.5 c -0.5,-1.4 -1.7,-2.3 -2.7,-3.4 -0.6,-0.3 -1.1,-0.6 -1.6,-1 v 0.6 c 1.3,1.3 2.8,2.6 4.3,3.8 z"
     class="st64"
     id="path4073"
     inkscape:connector-curvature="0"
     style="fill:#cfcfcf" />
  <path
     d="m 25.287663,384.07 c -0.6,-0.7 -1.2,-1.5 -1.3,-2.6 -0.2,0.6 -0.3,1.1 -0.4,1.6 0.6,0.4 1.1,0.7 1.7,1 z m -1,1.3 c -0.3,-0.5 -0.5,-1 -0.6,-1.6 -0.8,-0.8 -1.5,-1.5 -2.2,-2.3 -2,-1.8 -3.6,-3.9 -5.1,-6.2 0.4,1.3 0.9,2.4 1.5,3.5 1.7,2.4 3.9,4.7 6.4,6.6 z"
     class="st64"
     id="path4075"
     inkscape:connector-curvature="0"
     style="fill:#cfcfcf" />
  <path
     d="m 21.487663,381.37 c -2.6,-3.1 -4.7,-6.6 -6,-10.7 0.2,1.6 0.5,3.1 0.9,4.5 1.5,2.3 3.1,4.4 5.1,6.2 z m -3.6,-2.7 c 1.5,2.8 3.7,5.1 6.5,6.9 -0.1,-0.1 -0.1,-0.2 -0.2,-0.3 -2.4,-1.8 -4.6,-4.1 -6.3,-6.6 z m 5.8,5.1 c 0.1,0.6 0.3,1.1 0.6,1.6 0.6,0.4 1.1,0.8 1.7,1.2 0.7,0.4 1.3,0.7 2,1 -1.5,-1.2 -3,-2.5 -4.3,-3.8 z"
     class="st64"
     id="path4077"
     inkscape:connector-curvature="0"
     style="fill:#cfcfcf" />
  <path
     d="m 24.287663,385.37 c 0.1,0.1 0.1,0.2 0.2,0.3 l 1.5,0.9 c -0.6,-0.4 -1.2,-0.8 -1.7,-1.2 z"
     class="st64"
     id="path4079"
     inkscape:connector-curvature="0"
     style="fill:#cfcfcf" />
  <path
     d="m 38.487663,60.27 c 1.5,0.4 3.2,0.1 4.9,0.1 163.799997,0 327.499997,0 491.299997,0.1 6,0 11.4,-1.3 16.6,-4.2 1.6,-0.9 3.1,-1.9 3.8,-3.5 -0.1,0.1 -0.3,0.2 -0.4,0.3 -6.3,3.9 -13.1,5.3 -20.5,5.3 -163.4,-0.1 -326.9,-0.1 -490.299997,0 -7.3,0 -14,-1.3 -20.1,-5.1 3,5.3 9.3,5.6 14.7,7 z"
     class="st61"
     id="path4081"
     inkscape:connector-curvature="0"
     style="fill:#bdbdbd" />
  <path
     d="m 43.787663,58.37 c 163.399997,-0.1 326.899997,-0.1 490.299997,0 7.4,0 14.2,-1.4 20.5,-5.3 0.1,-0.1 0.3,-0.2 0.4,-0.3 0.3,-0.6 0.5,-1.4 0.5,-2.2 -6.8,4.6 -14.2,5.8 -22.4,5.8 -162.8,-0.1 -325.5,-0.1 -488.299997,0 -8.2,0 -15.6,-1.3 -22.4,-5.8 0.3,1.1 0.7,2 1.2,2.8 6.3,3.7 13,5 20.2,5 z"
     class="st61"
     id="path4083"
     inkscape:connector-curvature="0"
     style="fill:#bdbdbd" />
  <path
     d="m 21.987663,51.87 c -2.9,-2.5 -5.1,-5.5 -6.6,-8.8 1.4,4.2 3.7,7.8 6.9,11 -0.4,-0.6 -0.5,-1.3 -0.3,-2.2 z m 510.199997,10.5 c -162.1,0 -324.2,0 -486.299997,0.1 -6.6,0 -12.9,-0.5 -18.6,-3.9 0.8,0.6 1.7,1.2 2.5,1.7 3.8,1.9 7.9,2.4 12.2,2.4 H 535.78766 c 4.5,0 8.8,-0.5 12.8,-2.5 1.4,-0.7 2.7,-1.7 4,-2.7 -3.9,2.9 -8.5,4.4 -13.4,4.8 -2.4,0.2 -4.7,0.1 -7,0.1 z m 32.1,-23 c -1.7,4.8 -4.2,9.2 -8.2,12.6 0.4,1.9 -0.6,3.2 -1.9,4.3 0.6,-0.5 1.3,-0.9 2,-1.3 2.4,-1.7 4.3,-3.8 5.8,-6.2 1.5,-2.9 2.4,-6 2.3,-9.4 z"
     class="st5"
     id="path4085"
     inkscape:connector-curvature="0"
     style="fill:#d4d4d4" />
  <path
     d="m 21.987663,51.87 c 0.1,-0.4 0.3,-0.9 0.5,-1.4 -4.5,-4.7 -7.2,-10.3 -8.6,-16.5 0,3.3 0.5,6.4 1.4,9.2 1.6,3.3 3.8,6.2 6.7,8.7 z M 564.28766,39.37 c 0,-0.9 -0.2,-1.8 -0.4,-2.8 -2.1,5.1 -4.4,10 -8.3,13.9 0.3,0.5 0.5,1 0.6,1.4 3.9,-3.4 6.3,-7.7 8.1,-12.5 z"
     class="st5"
     id="path4087"
     inkscape:connector-curvature="0"
     style="fill:#d4d4d4" />
  <path
     d="m 556.18766,54.87 c -0.7,0.4 -1.3,0.8 -2,1.3 -0.5,0.4 -1,0.8 -1.5,1.1 l -0.1,0.1 c -1.3,1 -2.5,1.9 -4,2.7 -4,2 -8.3,2.5 -12.8,2.5 H 41.987663 c -4.2,0 -8.3,-0.5 -12.2,-2.4 -0.9,-0.6 -1.7,-1.1 -2.5,-1.7 -0.6,-0.4 -1.3,-0.8 -1.9,-1.2 -1.3,-0.9 -2.6,-1.9 -3.3,-3.1 -3.1,-3.2 -5.5,-6.8 -6.9,-11 -1.1,-2.2 -1.9,-4.6 -2.5,-7.2 -0.3,1.4 0.1,3 0.3,4.5 1.3,8.8 6.6,14.9 13.4,19.9 12.2,3.7 24.7,2.8 37.2,2.8 H 513.38766 c 12.7,0 25.4,0.9 37.9,-2.8 1.8,-1.4 3.7,-2.8 5.5,-4.2 1.8,-2.4 3.6,-4.9 5,-7.5 -1.3,2.4 -3.2,4.5 -5.6,6.2 z"
     class="st5"
     id="path4089"
     inkscape:connector-curvature="0"
     style="fill:#d4d4d4" />
  <path
     d="m 13.887663,33.97 c -0.6,0.6 -0.9,1.3 -1.1,2 0.6,2.5 1.4,4.9 2.5,7.2 -0.9,-2.8 -1.4,-5.9 -1.4,-9.2 z m 542.199997,17.9 c -0.3,0.3 -0.7,0.6 -1,0.8 -0.7,1.6 -2.2,2.6 -3.8,3.5 -5.2,2.9 -10.6,4.2 -16.6,4.2 -163.8,-0.1 -327.5,-0.1 -491.299997,-0.1 -1.6,0 -3.3,0.3 -4.9,-0.1 -5.5,-1.4 -11.7,-1.7 -14.8,-7 -0.1,-0.1 -0.3,-0.1 -0.4,-0.2 -0.5,-0.4 -0.9,-0.8 -1.4,-1.2 -0.2,0.9 -0.1,1.6 0.2,2.2 1.5,1.6 3.3,3 5.1,4.4 5.6,3.4 12,3.9 18.6,3.9 162.099997,-0.1 324.199997,-0.1 486.299997,-0.1 2.3,0 4.6,0.1 7,-0.1 4.9,-0.4 9.5,-1.9 13.4,-4.8 0.5,-0.4 1.1,-0.8 1.6,-1.2 1.4,-1 2.4,-2.3 2,-4.2 z"
     class="st5"
     id="path4091"
     inkscape:connector-curvature="0"
     style="fill:#d4d4d4" />
  <path
     d="m 23.287663,53.07 c 0.1,0.1 0.3,0.1 0.4,0.2 -0.5,-0.8 -0.9,-1.7 -1.2,-2.8 -0.3,0.5 -0.4,1 -0.5,1.4 0.4,0.4 0.8,0.8 1.3,1.2 z m 532.799997,-1.2 c -0.1,-0.4 -0.3,-0.9 -0.6,-1.4 0,0.9 -0.2,1.6 -0.5,2.2 0.5,-0.2 0.8,-0.5 1.1,-0.8 z m -3.4,5.5 c 0.5,-0.4 1,-0.7 1.5,-1.1 -0.6,0.4 -1.1,0.8 -1.6,1.2 0,-0.1 0,-0.1 0.1,-0.1 z M 25.387663,57.27 c 0.6,0.5 1.2,0.9 1.9,1.2 -1.9,-1.4 -3.6,-2.8 -5.1,-4.4 0.6,1.3 2,2.3 3.2,3.2 z"
     class="st5"
     id="path4093"
     inkscape:connector-curvature="0"
     style="fill:#d4d4d4" />
  <path
     d="m 564.58766,38.47 c 0.2,0.6 0.3,1.2 0.4,1.8 0.2,-1.4 0.3,-2.9 0.3,-4.4 0,0.2 0,0.3 -0.1,0.5 z"
     class="st62"
     id="path4095"
     inkscape:connector-curvature="0"
     style="fill:#e8e8e8" />
  <path
     d="m 564.58766,38.47 c 0.2,-0.7 0.5,-1.4 0.7,-2.1 0,-0.2 0,-0.3 0.1,-0.5 0,-2.8 -0.4,-5.8 -1.3,-8.9 0,3.2 -0.1,6.4 -0.1,9.6 0.2,0.7 0.4,1.3 0.6,1.9 z"
     class="st62"
     id="path4097"
     inkscape:connector-curvature="0"
     style="fill:#e8e8e8" />
  <path
     d="m 565.28766,35.87 c 0,1.5 -0.1,3 -0.3,4.4 1.1,6.6 -3.5,11.3 -8,15.9 8.2,-4.2 12,-16.3 8.8,-25.6 0,1.8 -0.1,3.6 -0.5,5.3 z"
     class="st62"
     id="path4099"
     inkscape:connector-curvature="0"
     style="fill:#e8e8e8" />
  <path
     d="m 565.28766,35.87 c 0.4,-1.8 0.5,-3.5 0.4,-5.3 -0.4,-1.3 -1,-2.5 -1.7,-3.6 0.9,3.1 1.3,6.1 1.3,8.9 z m -1,3.5 c 0.2,3.5 -0.8,6.5 -2.3,9.4 1.5,-2.5 2.6,-5.3 3,-8.4 -0.1,-0.6 -0.2,-1.2 -0.4,-1.8 -0.1,0.2 -0.2,0.5 -0.3,0.8 z m -0.4,-2.8 c 0.2,0.9 0.3,1.9 0.4,2.8 l 0.3,-0.9 c -0.2,-0.6 -0.4,-1.2 -0.7,-1.9 z"
     class="st62"
     id="path4101"
     inkscape:connector-curvature="0"
     style="fill:#e8e8e8" />
  <path
     d="m 564.98766,40.27 c -0.5,3.1 -1.5,5.9 -3,8.4 -1.4,2.6 -3.2,5 -5,7.5 4.5,-4.6 9,-9.3 8,-15.9 z"
     class="st62"
     id="path4103"
     inkscape:connector-curvature="0"
     style="fill:#e8e8e8" />
  <path
     d="m 38.487663,308.07 c 1.5,0.4 3.2,0.1 4.9,0.1 163.799997,0 327.599997,0 491.299997,0.1 6,0 11.4,-1.3 16.6,-4.2 1.6,-0.9 3.1,-1.9 3.8,-3.5 -0.1,0.1 -0.3,0.2 -0.4,0.3 -6.3,3.9 -13.1,5.3 -20.5,5.3 -163.4,-0.1 -326.9,-0.1 -490.299997,0 -7.3,0 -14,-1.3 -20.1,-5.1 3,5.3 9.3,5.6 14.7,7 z"
     class="st61"
     id="path4105"
     inkscape:connector-curvature="0"
     style="fill:#bdbdbd" />
  <path
     d="m 43.887663,306.17 c 163.399997,-0.1 326.899997,-0.1 490.299997,0 7.4,0 14.2,-1.4 20.5,-5.3 0.1,-0.1 0.3,-0.2 0.4,-0.3 0.3,-0.7 0.5,-1.4 0.4,-2.3 -6.6,4.4 -13.7,5.9 -21.7,5.9 -163.2,-0.1 -326.5,-0.1 -489.699997,0 -8,0 -15.1,-1.5 -21.7,-5.9 0.3,1.1 0.7,2 1.2,2.8 6.3,3.8 13,5.1 20.3,5.1 z"
     class="st61"
     id="path4107"
     inkscape:connector-curvature="0"
     style="fill:#bdbdbd" />
  <path
     d="m 532.18766,310.17 c -162.1,0 -324.2,0 -486.399997,0.1 -6.6,0 -12.9,-0.5 -18.6,-3.9 0.8,0.6 1.7,1.2 2.5,1.7 3.8,1.9 7.9,2.4 12.2,2.4 H 536.08766 c 4.3,0 8.3,-0.6 12.1,-2.4 1.6,-0.8 3,-1.8 4.3,-2.9 -4,2.9 -8.6,4.5 -13.5,4.9 -2.1,0.2 -4.5,0.1 -6.8,0.1 z m 23.9,-10.5 c 0.4,1.6 -0.3,2.7 -1.3,3.7 1.3,-1.1 2.6,-2.3 4,-3.5 1.5,-1.4 2.7,-2.9 3.7,-4.5 1.1,-2.6 1.9,-5.3 1.8,-8.2 -1.8,4.8 -4.2,9.2 -8.2,12.5 z m -534.199997,0 c -2.9,-2.5 -5,-5.5 -6.6,-8.8 1.4,4.2 3.7,7.8 6.8,11 -0.2,-0.6 -0.3,-1.3 -0.2,-2.2 z"
     class="st5"
     id="path4109"
     inkscape:connector-curvature="0"
     style="fill:#d4d4d4" />
  <path
     d="m 564.18766,287.27 c 0,-0.9 -0.1,-1.9 -0.4,-2.9 -2,5.1 -4.5,9.9 -8.3,13.9 0.3,0.5 0.5,1 0.6,1.4 4,-3.3 6.4,-7.7 8.1,-12.4 z m -542.299997,12.4 c 0.1,-0.4 0.3,-0.9 0.6,-1.4 -4.4,-4.7 -7.3,-10.2 -8.6,-16.5 0,3.3 0.5,6.4 1.4,9.2 1.6,3.2 3.7,6.2 6.6,8.7 z"
     class="st5"
     id="path4111"
     inkscape:connector-curvature="0"
     style="fill:#d4d4d4" />
  <path
     d="m 558.78766,299.97 c -1.3,1.2 -2.6,2.3 -4,3.5 -0.5,0.5 -1.1,1 -1.7,1.4 -0.1,0.1 -0.2,0.2 -0.4,0.3 -1.4,1.1 -2.8,2.1 -4.3,2.9 -3.8,1.8 -7.9,2.4 -12.1,2.4 H 42.087663 c -4.2,0 -8.3,-0.5 -12.2,-2.4 -0.9,-0.6 -1.7,-1.1 -2.5,-1.7 -0.6,-0.4 -1.3,-0.8 -1.9,-1.3 -1.2,-0.9 -2.6,-1.9 -3.2,-3.1 -3.1,-3.2 -5.5,-6.8 -6.8,-11 -1.1,-2.3 -1.9,-4.6 -2.5,-7.2 -0.3,1.4 0.1,3 0.3,4.5 1.3,8.8 6.6,14.9 13.4,19.9 12.2,3.7 24.7,2.8 37.2,2.8 H 513.68766 c 12.7,0 25.4,0.9 37.9,-2.8 2.8,-2.3 5.5,-4.6 8.3,-7 0.9,-1.9 1.9,-3.8 2.7,-5.8 -1.1,1.7 -2.3,3.2 -3.8,4.6 z"
     class="st5"
     id="path4113"
     inkscape:connector-curvature="0"
     style="fill:#d4d4d4" />
  <path
     d="m 13.887663,281.77 c -0.6,0.6 -0.9,1.3 -1.1,2 0.6,2.5 1.4,4.9 2.5,7.2 -0.9,-2.8 -1.4,-5.9 -1.4,-9.2 z m 542.199997,17.9 c -0.3,0.3 -0.7,0.6 -1,0.8 -0.7,1.6 -2.2,2.6 -3.8,3.5 -5.2,2.9 -10.6,4.2 -16.6,4.2 -163.8,-0.1 -327.6,-0.1 -491.299997,-0.1 -1.6,0 -3.3,0.3 -4.9,-0.1 -5.4,-1.5 -11.7,-1.7 -14.8,-7 -0.1,-0.1 -0.3,-0.1 -0.4,-0.2 -0.5,-0.4 -0.9,-0.8 -1.4,-1.2 -0.2,0.8 -0.1,1.6 0.2,2.2 1.5,1.6 3.3,3 5.1,4.4 5.6,3.4 12,3.9 18.6,3.9 162.099997,-0.1 324.199997,-0.1 486.399997,-0.1 2.3,0 4.6,0.1 7,-0.1 5,-0.4 9.6,-2 13.5,-4.9 0.1,-0.1 0.2,-0.2 0.4,-0.3 0.6,-0.5 1.1,-0.9 1.7,-1.4 1,-0.8 1.7,-2 1.3,-3.6 z"
     class="st5"
     id="path4115"
     inkscape:connector-curvature="0"
     style="fill:#d4d4d4" />
  <path
     d="m 556.08766,299.67 c -0.1,-0.4 -0.3,-0.9 -0.6,-1.4 0,0.9 -0.2,1.6 -0.4,2.3 0.3,-0.3 0.7,-0.6 1,-0.9 z m -532.799997,1.2 c 0.1,0.1 0.3,0.1 0.4,0.2 -0.5,-0.8 -0.9,-1.8 -1.2,-2.8 -0.3,0.5 -0.5,1 -0.6,1.4 0.5,0.4 0.9,0.8 1.4,1.2 z m 2.1,4.2 c 0.6,0.5 1.3,0.9 1.9,1.3 -1.9,-1.4 -3.6,-2.8 -5.1,-4.4 0.6,1.2 2,2.1 3.2,3.1 z m 529.399997,-1.6 c -0.6,0.5 -1.1,0.9 -1.7,1.4 0.6,-0.5 1.2,-0.9 1.7,-1.4 z"
     class="st5"
     id="path4117"
     inkscape:connector-curvature="0"
     style="fill:#d4d4d4" />
  <path
     d="m 564.58766,286.07 c 0.2,0.6 0.4,1.2 0.5,1.8 0.2,-1.4 0.2,-2.8 0.2,-4.2 0,0.2 -0.1,0.4 -0.1,0.6 z"
     class="st62"
     id="path4119"
     inkscape:connector-curvature="0"
     style="fill:#e8e8e8" />
  <path
     d="m 565.18766,284.27 c 0.1,-0.2 0.1,-0.4 0.1,-0.6 -0.1,-2.4 -0.5,-4.9 -1.2,-7.4 l -0.3,8.1 c 0.3,0.6 0.6,1.1 0.8,1.7 z"
     class="st62"
     id="path4121"
     inkscape:connector-curvature="0"
     style="fill:#e8e8e8" />
  <path
     d="m 565.18766,287.87 c 0.9,5.1 -2.4,9.2 -5.4,13.4 6.5,-5.5 8.9,-15.2 6,-22.2 0,1.5 -0.1,3.1 -0.4,4.6 0,1.4 -0.1,2.8 -0.2,4.2 z"
     class="st62"
     id="path4123"
     inkscape:connector-curvature="0"
     style="fill:#e8e8e8" />
  <path
     d="m 565.28766,283.57 c 0.3,-1.5 0.4,-3.1 0.4,-4.6 -0.4,-1 -1,-2 -1.6,-2.8 0.7,2.6 1.1,5 1.2,7.4 z m -1.1,3.7 c 0.1,2.9 -0.7,5.6 -1.8,8.2 1.5,-2.4 2.3,-5 2.7,-7.6 -0.1,-0.6 -0.3,-1.2 -0.5,-1.8 -0.1,0.4 -0.2,0.8 -0.4,1.2 z"
     class="st62"
     id="path4125"
     inkscape:connector-curvature="0"
     style="fill:#e8e8e8" />
  <path
     d="m 564.58766,286.07 c -0.2,-0.6 -0.4,-1.1 -0.8,-1.7 0.2,1 0.3,1.9 0.4,2.9 0.2,-0.4 0.3,-0.8 0.4,-1.2 z m 0.6,1.8 c -0.4,2.7 -1.2,5.2 -2.7,7.6 -0.8,1.9 -1.8,3.8 -2.7,5.8 2.9,-4.2 6.3,-8.3 5.4,-13.4 z"
     class="st62"
     id="path4127"
     inkscape:connector-curvature="0"
     style="fill:#e8e8e8" />
  <path
     d="m 38.487663,472.37 c 1.5,0.4 3.2,0.1 4.9,0.1 163.799997,0 327.599997,0 491.299997,0.1 6,0 11.4,-1.3 16.6,-4.2 1.6,-0.9 3.1,-1.9 3.8,-3.5 -0.1,0.1 -0.3,0.2 -0.4,0.3 -6.3,3.9 -13.1,5.3 -20.5,5.3 -163.4,-0.1 -326.9,-0.1 -490.299997,0 -7.3,0 -13.9,-1.3 -20.1,-5.1 3,5.3 9.3,5.5 14.7,7 z"
     class="st61"
     id="path4129"
     inkscape:connector-curvature="0"
     style="fill:#bdbdbd" />
  <path
     d="m 43.787663,470.47 c 163.399997,-0.1 326.899997,-0.1 490.299997,0 7.4,0 14.2,-1.4 20.5,-5.3 0.1,-0.1 0.3,-0.2 0.4,-0.3 0.3,-0.7 0.5,-1.4 0.4,-2.3 -6.6,4.4 -13.7,5.9 -21.7,5.9 -163.2,-0.1 -326.5,-0.1 -489.699997,0 -8,0 -15.1,-1.5 -21.7,-5.9 0.3,1.1 0.7,2 1.2,2.8 6.4,3.7 13.1,5.1 20.3,5.1 z"
     class="st61"
     id="path4131"
     inkscape:connector-curvature="0"
     style="fill:#bdbdbd" />
  <path
     d="m 21.887663,463.97 c -3.1,-2.7 -5.4,-6 -7,-9.6 1.4,4.5 3.9,8.3 7.2,11.7 -0.2,-0.6 -0.3,-1.3 -0.2,-2.1 z m 542.299997,-12.5 c -1.7,4.8 -4.2,9.1 -8.1,12.5 0.6,2.5 -1.5,4 -3.3,5.4 -4,2.9 -8.6,4.5 -13.6,4.9 -2.3,0.2 -4.6,0.1 -7,0.1 -162.1,0 -324.3,0 -486.399997,0.1 -7,0 -13.7,-0.6 -19.5,-4.5 1.1,0.9 2.2,1.8 3.4,2.7 4.2,1.7 8.5,2.1 13,2.1 H 535.28766 c 4.7,0 9.2,-0.5 13.6,-2.3 1.9,-1.4 3.7,-2.9 5.8,-4 2.7,-1.6 4.9,-3.8 6.6,-6.5 1.9,-3.2 3.1,-6.6 2.9,-10.5 z"
     class="st5"
     id="path4133"
     inkscape:connector-curvature="0"
     style="fill:#d4d4d4" />
  <path
     d="m 21.887663,463.97 c 0.1,-0.4 0.3,-0.9 0.6,-1.4 -4.4,-4.7 -7.3,-10.2 -8.6,-16.5 -0.1,3.1 0.3,5.8 1.1,8.4 1.6,3.6 3.8,6.8 6.9,9.5 z m 542.299997,-12.5 c 0,-0.9 -0.2,-1.9 -0.4,-2.9 -2,5.1 -4.5,9.9 -8.3,13.9 0.3,0.5 0.5,1 0.6,1.4 4,-3.3 6.4,-7.6 8.1,-12.4 z"
     class="st5"
     id="path4135"
     inkscape:connector-curvature="0"
     style="fill:#d4d4d4" />
  <path
     d="m 554.68766,468.47 c -2.1,1.1 -3.9,2.6 -5.8,4 -4.3,1.8 -8.9,2.3 -13.6,2.3 H 42.687663 c -4.5,0 -8.8,-0.4 -13,-2.1 -1.2,-0.9 -2.3,-1.7 -3.4,-2.7 -0.3,-0.2 -0.6,-0.4 -0.9,-0.7 -1.3,-1 -2.7,-1.9 -3.3,-3.2 -3.3,-3.4 -5.8,-7.2 -7.2,-11.7 -0.9,-2 -1.6,-4.2 -2.1,-6.4 -0.6,1.9 -0.1,3.9 0.4,5.9 1.8,8.1 7,13.8 13.4,18.6 12.2,3.7 24.7,2.8 37.2,2.8 H 513.58766 c 12.7,0 25.4,0.9 37.9,-2.8 1.4,-0.9 2.8,-1.9 4.1,-2.8 2,-2.5 4.1,-5 5.7,-7.7 -1.7,2.6 -3.9,4.8 -6.6,6.5 z"
     class="st5"
     id="path4137"
     inkscape:connector-curvature="0"
     style="fill:#d4d4d4" />
  <path
     d="m 13.887663,446.07 c -0.5,0.6 -0.9,1.3 -1.1,2 0.5,2.2 1.2,4.4 2.1,6.4 -0.7,-2.6 -1.1,-5.4 -1,-8.4 z m 518.399997,28.4 c 2.3,0 4.6,0.1 7,-0.1 5,-0.4 9.5,-2 13.6,-4.9 1.9,-1.4 3.9,-2.9 3.3,-5.4 -0.3,0.3 -0.7,0.6 -1,0.8 -0.7,1.6 -2.2,2.6 -3.8,3.5 -5.2,2.9 -10.6,4.2 -16.6,4.2 -163.8,-0.1 -327.6,-0.1 -491.299997,-0.1 -1.6,0 -3.3,0.3 -4.9,-0.1 -5.4,-1.5 -11.7,-1.7 -14.8,-7 -0.1,-0.1 -0.3,-0.1 -0.4,-0.2 -0.5,-0.4 -0.9,-0.8 -1.4,-1.2 -0.2,0.8 -0.1,1.5 0.2,2.1 1.3,1.4 2.7,2.6 4.2,3.9 5.9,3.9 12.5,4.5 19.5,4.5 162.099997,-0.1 324.199997,0 486.399997,0 z"
     class="st5"
     id="path4139"
     inkscape:connector-curvature="0"
     style="fill:#d4d4d4" />
  <path
     d="m 23.287663,465.17 c 0.1,0.1 0.3,0.1 0.4,0.2 -0.5,-0.8 -0.9,-1.7 -1.2,-2.8 -0.3,0.5 -0.5,1 -0.6,1.4 0.5,0.4 0.9,0.8 1.4,1.2 z m 532.799997,-1.2 c -0.1,-0.4 -0.3,-0.9 -0.6,-1.4 0,0.9 -0.2,1.6 -0.4,2.3 0.3,-0.3 0.7,-0.6 1,-0.9 z m -530.699997,5.3 c 0.3,0.2 0.6,0.4 0.9,0.7 -1.5,-1.2 -2.9,-2.5 -4.2,-3.9 0.6,1.3 2,2.3 3.3,3.2 z"
     class="st5"
     id="path4141"
     inkscape:connector-curvature="0"
     style="fill:#d4d4d4" />
  <path
     d="m 564.48766,450.77 c 0.2,0.8 0.3,1.5 0.4,2.3 0.4,-1.8 0.5,-3.6 0.5,-5.5 -0.1,0.3 -0.1,0.6 -0.2,1 -0.2,0.6 -0.4,1.4 -0.7,2.2 z"
     class="st62"
     id="path4143"
     inkscape:connector-curvature="0"
     style="fill:#e8e8e8" />
  <path
     d="m 565.18766,448.47 c 0.1,-0.3 0.1,-0.6 0.2,-1 0,-2.8 -0.5,-5.7 -1.4,-8.4 -0.1,3.2 -0.1,6.4 -0.2,9.5 0.3,0.7 0.5,1.4 0.6,2.1 0.4,-0.7 0.6,-1.5 0.8,-2.2 z"
     class="st62"
     id="path4145"
     inkscape:connector-curvature="0"
     style="fill:#e8e8e8" />
  <path
     d="m 565.38766,447.47 c 0,1.9 -0.2,3.7 -0.5,5.5 0.5,5.8 -2.6,11.2 -9.3,16.7 7.9,-3.4 10.4,-10.5 11,-18 0.3,-3.6 1.9,-7.9 -0.9,-11.2 0.1,2.3 0.1,4.7 -0.3,7 z"
     class="st62"
     id="path4147"
     inkscape:connector-curvature="0"
     style="fill:#e8e8e8" />
  <path
     d="m 563.98766,439.07 c 0.9,2.8 1.3,5.6 1.4,8.4 0.4,-2.3 0.4,-4.7 0.2,-7.1 -0.4,-0.4 -0.9,-0.9 -1.6,-1.3 z m 0.2,12.4 c 0.2,4 -1.1,7.3 -3,10.5 1.7,-2.6 2.9,-5.7 3.6,-8.9 -0.1,-0.8 -0.2,-1.5 -0.4,-2.3 0,0.2 -0.1,0.4 -0.2,0.7 z"
     class="st62"
     id="path4149"
     inkscape:connector-curvature="0"
     style="fill:#e8e8e8" />
  <path
     d="m 564.48766,450.77 -0.6,-2.1 c 0.2,1 0.3,1.9 0.4,2.9 0,-0.4 0.1,-0.6 0.2,-0.8 z m 0.4,2.2 c -0.6,3.2 -1.9,6.3 -3.6,8.9 -1.6,2.7 -3.7,5.2 -5.7,7.7 6.7,-5.4 9.7,-10.8 9.3,-16.6 z m -522.199997,23 c -5.7,0 -11,-1.1 -16.1,-3.5 3.8,4.3 8.9,4.2 14,4.2 H 536.78766 c 5.3,0 10.6,0.2 14.7,-4.2 -5.1,2.4 -10.5,3.5 -16.1,3.5 z"
     class="st62"
     id="path4151"
     inkscape:connector-curvature="0"
     style="fill:#e8e8e8" />
  <path
     d="M 513.58766,475.27 H 63.787663 c -12.4,0 -25,0.9 -37.2,-2.8 5.1,2.4 10.4,3.5 16.1,3.5 H 535.28766 c 5.7,0 11,-1.1 16.1,-3.5 -12.4,3.7 -25.1,2.8 -37.8,2.8 z m 19.6,-163.5 c -162.8,-0.1 -325.6,-0.1 -488.399997,0 -6.4,0 -12.4,-1 -18.2,-3.5 3.7,3.3 8.1,4.2 12.8,4.2 H 538.58766 c 4.7,0 9.2,-0.9 12.8,-4.2 -5.8,2.5 -11.8,3.5 -18.2,3.5 z"
     class="st62"
     id="path4153"
     inkscape:connector-curvature="0"
     style="fill:#e8e8e8" />
  <path
     d="m 533.18766,311.77 c 6.4,0 12.4,-1 18.2,-3.5 -12.4,3.7 -25.2,2.8 -37.9,2.8 H 63.687663 c -12.4,0 -25,0.9 -37.2,-2.8 5.8,2.6 11.8,3.5 18.2,3.5 162.899997,-0.1 325.699997,-0.1 488.499997,0 z M 44.787663,63.97 c -6.4,0 -12.4,-1 -18.2,-3.5 3.7,3.3 8.1,4.2 12.8,4.2 H 538.58766 c 4.7,0 9.2,-0.9 12.8,-4.2 -5.8,2.6 -11.8,3.5 -18.2,3.5 -162.8,-0.1 -325.6,-0.1 -488.399997,0 z"
     class="st62"
     id="path4155"
     inkscape:connector-curvature="0"
     style="fill:#e8e8e8" />
  <path
     d="M 513.58766,63.17 H 63.787663 c -12.4,0 -25,0.9 -37.2,-2.8 5.8,2.6 11.8,3.5 18.2,3.5 162.799997,-0.1 325.599997,-0.1 488.399997,0 6.4,0 12.4,-1 18.2,-3.5 -12.4,3.7 -25.1,2.8 -37.8,2.8 z m -468.799997,82.9 c -6.4,0 -12.4,-1 -18.2,-3.5 3.7,3.3 8.1,4.2 12.8,4.2 H 538.58766 c 4.7,0 9.2,-0.9 12.8,-4.2 -5.8,2.5 -11.8,3.5 -18.2,3.5 -162.8,-0.1 -325.6,-0.1 -488.399997,0 z"
     class="st62"
     id="path4157"
     inkscape:connector-curvature="0"
     style="fill:#e8e8e8" />
  <path
     d="M 514.28766,145.27 H 64.487663 c -12.7,0 -25.4,0.9 -37.9,-2.8 5.8,2.5 11.8,3.5 18.2,3.5 162.799997,-0.1 325.599997,-0.1 488.399997,0 6.4,0 12.4,-1 18.2,-3.5 -12.1,3.8 -24.7,2.8 -37.1,2.8 z"
     class="st62"
     id="path4159"
     inkscape:connector-curvature="0"
     style="fill:#e8e8e8" />
  <path
     d="m 40.287663,391.07 h 1.6 c 1.1,0 2.2,-0.2 3.3,-0.2 H 532.78766 c 0.8,0 1.6,0.1 2.4,0.1 1.1,0 2.2,-0.1 3.3,-0.1 0.6,-0.1 1.2,-0.3 1.8,-0.7 H 37.687663 c 0.9,0.6 1.8,0.9 2.6,0.9 z m 498.199997,-0.1 c -1.1,0.1 -2.2,0.1 -3.3,0.1 1.1,0.1 2.2,0.2 3.3,-0.1 z m -494.399997,0.7 h -4 c 1.3,0.3 2.7,0.1 4,0 z m 493.799997,0 h -4.2 c 1.4,0.1 2.9,0.3 4.2,0 z"
     class="st64"
     id="path4161"
     inkscape:connector-curvature="0"
     style="fill:#cfcfcf" />
  <path
     d="m 45.187663,390.97 c -1.1,0 -2.2,0.1 -3.3,0.2 H 535.08766 c -0.8,0 -1.6,-0.1 -2.4,-0.1 -162.4,0 -324.9,0 -487.499997,-0.1 z m 494.499997,-0.1 c 0.2,-0.2 0.4,-0.3 0.6,-0.6 -0.6,0.3 -1.2,0.5 -1.8,0.7 0.4,0 0.8,0 1.2,-0.1 z m -501.999997,-0.5 c 0.2,0.3 0.5,0.5 0.7,0.6 0.4,0 0.7,0.1 1.1,0.1 h 0.8 c -0.8,0 -1.7,-0.3 -2.6,-0.7 z"
     class="st64"
     id="path4163"
     inkscape:connector-curvature="0"
     style="fill:#cfcfcf" />
  <path
     d="m 538.48766,390.97 c -1.1,0.2 -2.2,0.2 -3.3,0.1 H 39.587663 c -0.4,0 -0.7,-0.1 -1.1,-0.1 0.5,0.4 1.1,0.6 1.7,0.8 H 537.88766 c 0.6,-0.1 1.2,-0.4 1.7,-0.8 z"
     class="st64"
     id="path4165"
     inkscape:connector-curvature="0"
     style="fill:#cfcfcf" />
</svg>
